<svg fill="none" xmlns="http://www.w3.org/2000/svg">
  <path fill="none" id="eye" d="M10.7302 5.07319C11.1448 5.02485 11.5684 5 11.9999 5C16.6639 5 20.3998 7.90264 21.9999 12C21.6053 13.0104 21.0809 13.9482 20.4446 14.7877M6.51956 6.51944C4.47949 7.76406 2.90105 9.69259 1.99994 12C3.60008 16.0974 7.33597 19 11.9999 19C14.0375 19 15.8979 18.446 17.4805 17.4804M9.87871 9.87859C9.33576 10.4215 8.99994 11.1715 8.99994 12C8.99994 13.6569 10.3431 15 11.9999 15C12.8284 15 13.5785 14.6642 14.1214 14.1212M4 4L20 20" stroke-width="1.5" stroke-linecap="round"/>
  <path fill="none" id="phone" d="M9.55399 5.24003L6.17099 1.33503C5.78099 0.88503 5.06599 0.88703 4.61299 1.34103L1.83099 4.12803C1.00299 4.95703 0.765988 6.18803 1.24499 7.17503C4.10661 13.1 8.88503 17.8851 14.806 20.755C15.792 21.234 17.022 20.997 17.85 20.168L20.658 17.355C21.113 16.9 21.114 16.181 20.66 15.791L16.74 12.426C16.33 12.074 15.693 12.12 15.282 12.532L13.918 13.898C13.8482 13.9712 13.7562 14.0195 13.6563 14.0354C13.5564 14.0513 13.4541 14.0339 13.365 13.986C11.1354 12.7021 9.28598 10.8503 8.00499 8.61903C7.95702 8.52978 7.93964 8.42726 7.95554 8.32719C7.97144 8.22711 8.01972 8.13502 8.09299 8.06503L9.45299 6.70403C9.86499 6.29003 9.90999 5.65003 9.55399 5.23903V5.24003Z" stroke-width="2" stroke-linecap="round" stroke-linejoin="round"/>
  <path id="email" d="M20 0.5H2C1.60218 0.5 1.22064 0.658035 0.93934 0.93934C0.658035 1.22064 0.5 1.60218 0.5 2V14C0.5 14.3978 0.658035 14.7794 0.93934 15.0607C1.22064 15.342 1.60218 15.5 2 15.5H20C20.3978 15.5 20.7794 15.342 21.0607 15.0607C21.342 14.7794 21.5 14.3978 21.5 14V2C21.5 1.60218 21.342 1.22064 21.0607 0.93934C20.7794 0.658035 20.3978 0.5 20 0.5ZM18.35 2L11 7.085L3.65 2H18.35ZM2 14V2.6825L10.5725 8.615C10.698 8.7021 10.8472 8.74877 11 8.74877C11.1528 8.74877 11.302 8.7021 11.4275 8.615L20 2.6825V14H2Z" />
  <path d="M3.85 9.6021e-07C1.72375 9.6021e-07 0 1.72173 0 3.84548C0 7.69096 4.55 11.1869 7 12C9.45 11.1869 14 7.69096 14 3.84548C14 1.72173 12.2762 9.6021e-07 10.15 9.6021e-07C8.848 9.6021e-07 7.6965 0.645692 7 1.63398C6.64499 1.1289 6.17336 0.71669 5.62504 0.432263C5.07672 0.147837 4.46785 -0.000435366 3.85 9.6021e-07Z"/>
  <path id="like" d="M4.85 1C2.72375 1 1 2.72173 1 4.84548C1 8.69096 5.55 12.1869 8 13C10.45 12.1869 15 8.69096 15 4.84548C15 2.72173 13.2762 1 11.15 1C9.848 1 8.6965 1.64569 8 2.63398C7.64499 2.1289 7.17336 1.71669 6.62504 1.43226C6.07672 1.14784 5.46785 0.999565 4.85 1Z" stroke="#151317" stroke-linecap="round" stroke-linejoin="round"/>
  <path id="back" d="M5.83749 14.0013C5.68809 14.0018 5.54048 13.9688 5.4055 13.9048C5.27052 13.8407 5.15161 13.7473 5.05749 13.6313L0.227488 7.63125C0.0804062 7.45232 0 7.22788 0 6.99625C0 6.76463 0.0804062 6.54018 0.227488 6.36125L5.22749 0.361252C5.39723 0.157036 5.64114 0.0286112 5.90556 0.0042315C6.16999 -0.0201482 6.43327 0.0615137 6.63749 0.231252C6.8417 0.400991 6.97013 0.644902 6.99451 0.909329C7.01889 1.17375 6.93723 1.43704 6.76749 1.64125L2.29749 7.00125L6.61749 12.3613C6.73977 12.508 6.81745 12.6868 6.84133 12.8763C6.86521 13.0659 6.83429 13.2583 6.75223 13.4308C6.67018 13.6034 6.54042 13.7488 6.37831 13.8499C6.2162 13.9509 6.02852 14.0035 5.83749 14.0013Z"/>
  <path id="exit" d="M7.79 13.29C8.18 13.68 8.81 13.68 9.2 13.29L12.79 9.7C12.8827 9.60749 12.9563 9.4976 13.0064 9.37662C13.0566 9.25565 13.0824 9.12597 13.0824 8.995C13.0824 8.86403 13.0566 8.73435 13.0064 8.61338C12.9563 8.4924 12.8827 8.38251 12.79 8.29L9.2 4.7C9.01302 4.51302 8.75943 4.40798 8.495 4.40798C8.23057 4.40798 7.97698 4.51302 7.79 4.7C7.60302 4.88698 7.49798 5.14057 7.49798 5.405C7.49798 5.66943 7.60302 5.92302 7.79 6.11L9.67 8H1C0.45 8 0 8.45 0 9C0 9.55 0.45 10 1 10H9.67L7.79 11.88C7.4 12.27 7.41 12.91 7.79 13.29ZM16 0H2C1.46957 0 0.960859 0.210714 0.585786 0.585786C0.210714 0.960859 0 1.46957 0 2V5C0 5.55 0.45 6 1 6C1.55 6 2 5.55 2 5V3C2 2.45 2.45 2 3 2H15C15.55 2 16 2.45 16 3V15C16 15.55 15.55 16 15 16H3C2.45 16 2 15.55 2 15V13C2 12.45 1.55 12 1 12C0.45 12 0 12.45 0 13V16C0 17.1 0.9 18 2 18H16C17.1 18 18 17.1 18 16V2C18 0.9 17.1 0 16 0Z"/>
</svg>

